<svg width="64" height="64" viewBox="0 0 64 64" fill="none" xmlns="http://www.w3.org/2000/svg">
<rect width="64" height="64" rx="6" fill="#F1F3FF"/>
<g opacity="0.6">
<path opacity="0.3" d="M32.9999 50C42.9411 50 50.9999 41.9411 50.9999 32C50.9999 22.0589 42.9411 14 32.9999 14C23.0588 14 14.9999 22.0589 14.9999 32C14.9999 41.9411 23.0588 50 32.9999 50Z" fill="#3445E5"/>
<path opacity="0.3" fill-rule="evenodd" clip-rule="evenodd" d="M32.4715 49.9924C22.7747 49.7128 14.9999 41.7643 14.9999 32C14.9999 31.8337 15.0022 31.6679 15.0067 31.5026C16.3246 31.6287 18.7127 31.9148 18.8252 32.8408C18.9809 34.1218 18.8252 35.7232 19.916 36.2035C21.0069 36.6839 21.3186 34.2819 22.2534 34.9225C23.1883 35.5632 25.6817 36.1798 25.6817 37.3124C25.6817 38.4448 25.2142 40.2069 25.6817 40.5272C26.1491 40.8476 28.0179 43.0893 28.0184 43.4096C28.0191 43.7299 28.6771 45.3587 28.4807 45.9813C28.318 46.4975 27.4971 48.1003 26.7011 48.8291C28.5062 49.5241 30.4471 49.9316 32.4715 49.9921V49.9924ZM25.5654 15.6022C27.8316 14.5731 30.3489 14 32.9999 14C40.0228 14 46.1064 18.0219 49.0728 23.8882C49.1393 25.4482 49.1276 26.7827 49.4722 27.2655C51.2263 29.7201 45.199 31.4086 46.1146 35.1211C46.5179 36.759 42.1055 36.2394 41.0279 37.7728C39.9495 39.3055 37.3149 38.2756 36.704 37.981C36.093 37.6864 33.7532 38.6683 33.9578 36.999C34.1611 35.3293 35.5845 35.2312 37.1111 34.5439C38.6369 33.8573 40.8378 31.5744 39.7563 31.276C34.6646 29.8725 32.9275 24.957 32.9275 24.957C32.622 24.898 32.6987 21.4822 31.3767 21.3841C30.0534 21.2856 29.3409 21.7768 27.4087 21.3841C25.4752 20.9915 25.8828 19.7149 25.5774 16.9651C25.509 16.3483 25.5123 15.9143 25.5654 15.6022ZM50.9983 31.7541C50.9994 31.8359 50.9999 31.9179 50.9999 32C50.9999 41.8814 43.0376 49.9031 33.179 49.9991C42.9404 49.9007 50.8674 41.7769 50.9983 31.7541Z" fill="#3445E5"/>
</g>
</svg>
